# xmcd
#
# Track frame offsets:
#	150
#	11368
#	25270
#	45587
#	58573
#	75012
#	88923
#	103823
#	117363
#	130617
#	149820
#	162136
#
# Disc length: 2373 seconds
#
# Revision: 0
# Processed by: cddbd v1.5.2PL0 Copyright (c) Steve Scherf et al.
# Submitted via: EasyCDDAExtractor 15.1.0.1
#
DISCID=9209430c
DTITLE=Bronwynne Brent - Deep Black Water
DYEAR=2011
DGENRE=Country
TTITLE0=Like The Thunder
TTITLE1=Building A Wall
TTITLE2=Deep Black Water
TTITLE3=Secret
TTITLE4=Tell Me Sweet
TTITLE5=Wrecked My Mind
TTITLE6=Walking Through The Park
TTITLE7=The Ocean
TTITLE8=Baby We'd Be Fine
TTITLE9=Love Like A Web
TTITLE10=Thankfully
TTITLE11=Memories Of You
EXTD=
EXTT0=
EXTT1=
EXTT2=
EXTT3=
EXTT4=
EXTT5=
EXTT6=
EXTT7=
EXTT8=
EXTT9=
EXTT10=
EXTT11=
PLAYORDER=
